<svg width="103" height="37" viewBox="0 0 103 37" fill="none" xmlns="http://www.w3.org/2000/svg">
<path d="M13.1137 0.00341797H0V36.9997H13.1137V0.00341797Z" fill="white"/>
<path d="M16.0344 36.9963L16.0215 4.50984e-07C23.1576 -0.00186663 30.2938 5.79356 30.2993 17.9576C30.3048 32.0989 23.1705 36.9944 16.0344 36.9963Z" fill="white"/>
<path d="M47.4607 12.9934C47.4607 16.0312 45.4553 17.4595 43.1731 17.4595H36.7676V8.52734H43.1731C45.4553 8.52734 47.4607 9.95753 47.4607 12.9934ZM45.1896 12.9934C45.1896 10.8239 44.0292 10.4542 42.3152 10.4542H39.0368V15.5326H42.3152C44.031 15.5326 45.1896 15.163 45.1896 12.9934Z" fill="white"/>
<path d="M56.3479 14.7669H58.4917C57.9991 16.6806 56.1597 17.5862 53.4108 17.5862C50.5862 17.5862 48.3926 16.464 48.3926 13.7063C48.3926 10.9375 50.5235 9.81348 53.5362 9.81348C56.3608 9.81348 58.6171 10.7956 58.6171 14.2161H50.5973C50.8371 15.4147 51.9717 15.8106 53.4089 15.8106C54.8996 15.8143 55.8073 15.5324 56.3479 14.7669ZM50.6747 12.8288H56.311C55.9457 11.7702 54.8867 11.4752 53.5251 11.4752C52.0492 11.4752 51.0161 11.7683 50.6747 12.8288Z" fill="white"/>
<path d="M61.4419 14.8193C61.4419 15.624 62.261 15.9302 64.6705 15.9302C67.0025 15.9302 67.3807 15.7771 67.3807 15.1909C67.3807 14.6158 67.0283 14.5784 64.4177 14.4123C61.1522 14.22 59.5508 13.966 59.5508 12.1531C59.5508 10.1889 61.8201 9.81738 64.4675 9.81738C67.2663 9.81738 69.2975 10.1871 69.2975 12.2539H67.1297C67.1297 11.6285 66.3475 11.4754 64.3439 11.4754C62.3016 11.4754 61.7205 11.6285 61.7205 12.0616C61.7205 12.534 62.1116 12.6105 64.6705 12.801C67.5707 13.0176 69.5503 13.0941 69.5503 15.0975C69.5503 17.2148 67.6592 17.5863 64.7959 17.5863C61.9345 17.5863 59.2852 17.2166 59.2852 14.8174H61.4419V14.8193Z" fill="white"/>
<path d="M72.7012 7.25195V9.15264H70.5444V7.25195H72.7012ZM72.7012 9.94429V17.4593H70.5444V9.94429H72.7012Z" fill="white"/>
<path d="M83.9864 9.94434V16.2607C83.9864 19.3227 81.957 20.6502 79.1453 20.6502C76.9886 20.6502 75.2119 20.2413 74.4924 20.0509V18.2902C75.3632 18.4564 77.0273 18.8261 78.6656 18.8261C80.898 18.8261 81.73 17.9579 81.8186 16.031C81.0622 16.8731 79.8132 17.3716 78.0605 17.3716C75.5127 17.3716 73.6973 16.2495 73.6973 13.5945C73.6973 10.9395 75.5127 9.81738 78.0605 9.81738C79.8261 9.81738 81.0733 10.3159 81.8186 11.1579V9.94621H83.9864V9.94434ZM81.8168 13.5945C81.8168 12.2166 80.8703 11.6415 78.8409 11.6415C76.8115 11.6415 75.8521 12.2166 75.8521 13.5945C75.8521 14.9724 76.8096 15.5475 78.8409 15.5475C80.8722 15.5456 81.8168 14.9724 81.8168 13.5945Z" fill="white"/>
<path d="M95.5853 13.2995L95.5595 17.4594H93.3898V14.1303C93.3898 12.5359 92.8603 11.705 91.0818 11.705C89.6317 11.705 88.0691 12.4574 87.3994 13.2491V17.4594H85.2427V9.94434H87.3994V11.2588C88.4584 10.4167 89.9214 9.81738 91.7239 9.81738C93.7072 9.81738 95.5595 10.5306 95.5853 13.2995Z" fill="white"/>
<path d="M45.3666 27.4704H40.0828L39.1363 29.3711H36.6401L41.1916 20.439H44.256L48.8203 29.3711H46.3112L45.3666 27.4704ZM44.5216 25.7602L42.7321 22.1361L40.9296 25.7602H44.5216Z" fill="white"/>
<path d="M51.7723 23.6802V25.8497C51.7723 27.3042 52.0491 27.6739 53.3608 27.6739C54.0416 27.6739 54.4198 27.6739 55.2906 27.5469V29.3076C54.5711 29.4345 53.7519 29.4999 52.7557 29.4999C50.8388 29.4999 49.6027 28.7717 49.6027 27.1138V23.6821H47.6489V21.8579H49.6027V20.3008L51.7723 19.6753V21.8579H55.2906V23.6821H51.7723V23.6802Z" fill="white"/>
<path d="M58.5044 19.1636V21.0643H56.3477V19.1636H58.5044ZM58.5044 21.8559V29.3709H56.3477V21.8559H58.5044Z" fill="white"/>
<path d="M69.902 21.856L66.1328 29.371H63.0555L59.2974 21.856H61.6939L64.607 27.8288L67.5073 21.856H69.902Z" fill="white"/>
<path d="M72.7763 19.1636V21.0643H70.6196V19.1636H72.7763ZM72.7763 21.8559V29.3709H70.6196V21.8559H72.7763Z" fill="white"/>
<path d="M75.9297 26.7309C75.9297 27.5356 76.7488 27.8418 79.1583 27.8418C81.4902 27.8418 81.8685 27.6887 81.8685 27.1025C81.8685 26.5274 81.5161 26.4901 78.9055 26.3239C75.64 26.1316 74.0386 25.8777 74.0386 24.0647C74.0386 22.1006 76.3079 21.729 78.9553 21.729C81.7541 21.729 83.7853 22.0987 83.7853 24.1655H81.6175C81.6175 23.5401 80.8353 23.387 78.8317 23.387C76.7894 23.387 76.2082 23.5401 76.2082 23.9732C76.2082 24.4456 76.5994 24.5222 79.1583 24.7126C82.0585 24.9292 84.0381 25.0057 84.0381 27.0091C84.0381 29.1264 82.147 29.4979 79.2837 29.4979C76.4223 29.4979 73.7729 29.1283 73.7729 26.7291H75.9297V26.7309Z" fill="white"/>
<path d="M88.5487 23.6802V25.8497C88.5487 27.3042 88.8254 27.6739 90.1372 27.6739C90.8179 27.6739 91.1961 27.6739 92.0669 27.5469V29.3076C91.3474 29.4345 90.5283 29.4999 89.532 29.4999C87.6152 29.4999 86.3791 28.7717 86.3791 27.1138V23.6821H84.4253V21.8579H86.3791V20.3008L88.5487 19.6753V21.8579H92.0669V23.6821H88.5487V23.6802Z" fill="white"/>
<path d="M103 25.5827V29.3729H100.83V28.4412C99.5187 29.0928 98.0686 29.4998 96.3159 29.4998C94.2349 29.4998 92.936 28.8239 92.936 27.1267C92.936 25.1738 95.054 24.5614 97.4118 24.5614C98.6848 24.5614 99.8582 24.7649 100.829 25.0972C100.829 23.6689 99.0132 23.5531 98.004 23.5531C97.0336 23.5531 95.8473 23.6428 94.3216 24.1021L93.5522 22.5076C95.0651 22.0091 96.5539 21.729 98.1037 21.729C101.209 21.729 102.974 22.7372 103 25.5827ZM100.83 26.4509C100.074 26.2081 99.0519 25.9916 97.6775 25.9916C96.0632 25.9916 95.0927 26.2716 95.0927 27.0371C95.0927 27.8288 95.8123 27.8923 96.934 27.8923C98.1073 27.8923 99.7198 27.5226 100.83 27.0371V26.4509Z" fill="white"/>
</svg>
