<svg width="32" height="32" viewBox="0 0 32 32" fill="none" xmlns="http://www.w3.org/2000/svg">
<path fill-rule="evenodd" clip-rule="evenodd" d="M15.5625 0.149902C6.96757 0.149902 0 7.11747 0 15.7124C0 24.3073 6.96757 31.2749 15.5625 31.2749C24.1574 31.2749 31.125 24.3073 31.125 15.7124C31.125 7.11747 24.1574 0.149902 15.5625 0.149902ZM12.1409 7.46255C13.0262 7.42226 13.3091 7.4124 15.5633 7.4124H15.5607C17.8156 7.4124 18.0974 7.42226 18.9828 7.46255C19.8664 7.50301 20.4699 7.6429 20.999 7.84816C21.5454 8.05998 22.0071 8.34357 22.4688 8.80526C22.9305 9.26661 23.2141 9.72968 23.4268 10.2756C23.6308 10.8033 23.7709 11.4065 23.8124 12.2901C23.8521 13.1754 23.8625 13.4583 23.8625 15.7125C23.8625 17.9667 23.8521 18.2489 23.8124 19.1342C23.7709 20.0175 23.6308 20.6208 23.4268 21.1487C23.2141 21.6944 22.9305 22.1575 22.4688 22.6189C22.0076 23.0805 21.5452 23.3648 20.9995 23.5768C20.4714 23.7821 19.8676 23.922 18.984 23.9624C18.0986 24.0027 17.8166 24.0126 15.5623 24.0126C13.3083 24.0126 13.0255 24.0027 12.1402 23.9624C11.2568 23.922 10.6534 23.7821 10.1254 23.5768C9.5798 23.3648 9.11672 23.0805 8.65555 22.6189C8.19403 22.1575 7.91044 21.6944 7.69827 21.1485C7.49319 20.6208 7.3533 20.0176 7.31266 19.134C7.27254 18.2487 7.26252 17.9667 7.26252 15.7125C7.26252 13.4583 7.27289 13.1753 7.31249 12.2899C7.35226 11.4066 7.49232 10.8033 7.6981 10.2754C7.91079 9.72968 8.19437 9.26661 8.65607 8.80526C9.11741 8.34374 9.58049 8.06016 10.1264 7.84816C10.6541 7.6429 11.2573 7.50301 12.1409 7.46255Z" fill="white"/>
<path fill-rule="evenodd" clip-rule="evenodd" d="M14.8185 8.90833C14.9631 8.9081 15.1187 8.90817 15.2865 8.90824L15.5631 8.90833C17.7793 8.90833 18.0419 8.91628 18.9171 8.95605C19.7263 8.99306 20.1655 9.12828 20.4581 9.24188C20.8454 9.39232 21.1216 9.57216 21.4119 9.86266C21.7024 10.1532 21.8823 10.4298 22.033 10.8172C22.1467 11.1094 22.282 11.5486 22.3189 12.3579C22.3587 13.2328 22.3673 13.4957 22.3673 15.7108C22.3673 17.9258 22.3587 18.1887 22.3189 19.0637C22.2819 19.8729 22.1467 20.3121 22.033 20.6044C21.8826 20.9917 21.7024 21.2675 21.4119 21.5578C21.1214 21.8483 20.8456 22.0282 20.4581 22.1786C20.1659 22.2927 19.7263 22.4276 18.9171 22.4646C18.0421 22.5044 17.7793 22.513 15.5631 22.513C13.3468 22.513 13.0842 22.5044 12.2092 22.4646C11.3999 22.4273 10.9607 22.292 10.668 22.1784C10.2806 22.028 10.004 21.8482 9.71347 21.5577C9.42297 21.2672 9.24313 20.9912 9.09235 20.6037C8.97874 20.3114 8.84335 19.8722 8.80651 19.063C8.76674 18.188 8.75879 17.9252 8.75879 15.7087C8.75879 13.4922 8.76674 13.2308 8.80651 12.3558C8.84352 11.5465 8.97874 11.1073 9.09235 10.8148C9.24279 10.4274 9.42297 10.1507 9.71347 9.86024C10.004 9.56974 10.2806 9.3899 10.668 9.23912C10.9606 9.12499 11.3999 8.99012 12.2092 8.95294C12.9749 8.91835 13.2716 8.90798 14.8185 8.90625V8.90833ZM19.9936 10.2865C19.4438 10.2865 18.9976 10.7321 18.9976 11.2822C18.9976 11.832 19.4438 12.2782 19.9936 12.2782C20.5435 12.2782 20.9897 11.832 20.9897 11.2822C20.9897 10.7323 20.5435 10.2861 19.9936 10.2861V10.2865ZM11.3007 15.7127C11.3007 13.3588 13.2091 11.4503 15.563 11.4502C17.9169 11.4502 19.8249 13.3587 19.8249 15.7127C19.8249 18.0666 17.9171 19.9742 15.5631 19.9742C13.2092 19.9742 11.3007 18.0666 11.3007 15.7127Z" fill="white"/>
<path d="M15.5631 12.9458C17.091 12.9458 18.3298 14.1844 18.3298 15.7125C18.3298 17.2404 17.091 18.4792 15.5631 18.4792C14.035 18.4792 12.7964 17.2404 12.7964 15.7125C12.7964 14.1844 14.035 12.9458 15.5631 12.9458Z" fill="white"/>
</svg>
