<svg width="375" height="436" viewBox="0 0 375 436" fill="none" xmlns="http://www.w3.org/2000/svg">
<path d="M188.003 -68L198.075 88.2726L240.473 -62.4922L217.792 92.4583L290.654 -46.2152L236.2 100.642L336.349 -19.87L252.508 112.471L375.556 15.3818L265.99 127.421L406.573 57.9987L276.068 144.849L428.032 106.129L282.297 163.99L439 157.658L284.404 184.003L439 210.343L282.297 204.016L428.032 261.871L276.068 223.151L406.573 310.001L265.99 240.579L375.556 352.624L252.508 255.534L336.349 387.875L236.2 267.363L290.654 414.215L217.792 275.547L240.473 430.492L198.075 279.727L188.003 436L177.925 279.727L135.527 430.492L158.213 275.547L85.3458 414.215L139.8 267.363L39.6515 387.875L123.498 255.534L0.443535 352.624L110.01 240.579L-30.5679 310.001L99.9322 223.151L-52.0321 261.871L93.7031 204.016L-63 210.343L91.6017 184.003L-63 157.658L93.7031 163.99L-52.0321 106.129L99.9322 144.849L-30.5679 57.9987L110.01 127.421L0.443535 15.3818L123.498 112.471L39.6515 -19.87L139.8 100.642L85.3458 -46.2152L158.213 92.4583L135.527 -62.4922L177.925 88.2726L188.003 -68Z" fill="#FFF800"/>
<path d="M174.874 122.21L132.771 129.52L153.295 247.395L195.398 240.085L174.874 122.21Z" fill="black"/>
<path d="M184.69 120.441L205.138 238.338C232.16 233.625 247.027 209.41 240.454 171.439C233.88 133.545 210.451 115.958 184.69 120.441Z" fill="black"/>
</svg>
