<svg width="800" height="800" viewBox="0 0 800 800" fill="none" xmlns="http://www.w3.org/2000/svg">
<path d="M400.004 0L416.056 248.052L483.622 8.74247L447.477 254.696L563.592 34.5791L476.814 267.686L636.412 76.3968L502.801 286.463L698.895 132.352L524.286 310.192L748.324 199.998L540.347 337.855L782.521 276.395L550.274 368.237L800 358.187L553.631 400.004L800 441.814L550.274 431.771L782.521 523.605L540.347 462.145L748.324 600.002L524.286 489.808L698.895 667.656L502.801 513.546L636.412 723.612L476.814 532.322L563.592 765.421L447.477 545.313L483.622 791.258L416.056 551.948L400.004 800L383.944 551.948L316.378 791.258L352.531 545.313L236.408 765.421L323.186 532.322L163.588 723.612L297.208 513.546L101.105 667.656L275.714 489.808L51.6846 600.002L259.653 462.145L17.4788 523.605L249.726 431.771L0 441.814L246.377 400.004L0 358.187L249.726 368.237L17.4788 276.395L259.653 337.855L51.6846 199.998L275.714 310.192L101.105 132.352L297.208 286.463L163.588 76.3968L323.186 267.686L236.408 34.5791L352.531 254.696L316.378 8.74247L383.944 248.052L400.004 0Z" fill="#FFF800"/>
<path d="M381.534 308.486L321.412 318.822L350.857 486.264L410.979 475.928L381.534 308.486Z" fill="black"/>
<path d="M395.54 305.923L424.735 473.42C463.316 466.725 484.543 432.322 475.157 378.377C465.771 324.54 432.32 299.554 395.54 305.923Z" fill="black"/>
</svg>
