<svg width="700" height="808" viewBox="0 0 700 808" fill="none" xmlns="http://www.w3.org/2000/svg">
<path d="M298.004 0L314.137 250.532L382.04 8.8299L345.715 257.243L462.41 34.9249L375.198 270.363L535.594 77.1608L401.315 289.327L598.389 133.676L422.908 313.294L648.066 201.998L439.049 341.234L682.434 279.159L449.025 371.92L700 361.768L452.399 404.004L700 446.232L449.025 436.089L682.434 528.841L439.049 466.766L648.066 606.002L422.908 494.706L598.389 674.333L401.315 518.681L535.594 730.848L375.198 537.646L462.41 773.075L345.715 550.766L382.04 799.17L314.137 557.468L298.004 808L281.863 557.468L213.96 799.17L250.294 550.766L133.59 773.075L220.802 537.646L60.406 730.848L194.694 518.681L-2.38924 674.333L173.092 494.706L-52.057 606.002L156.951 466.766L-86.4338 528.841L146.975 436.089L-104 446.232L143.609 404.004L-104 361.768L146.975 371.92L-86.4338 279.159L156.951 341.234L-52.057 201.998L173.092 313.294L-2.38924 133.676L194.694 289.327L60.406 77.1608L220.802 270.363L133.59 34.9249L250.294 257.243L213.96 8.8299L281.863 250.532L298.004 0Z" fill="#FFF800"/>
<path d="M279.433 311.521L219.019 322.01L248.469 491.151L308.882 480.661L279.433 311.521Z" fill="black"/>
<path d="M293.517 308.983L322.858 478.155C361.632 471.392 382.966 436.645 373.533 382.16C364.1 327.786 330.481 302.55 293.517 308.983Z" fill="black"/>
</svg>
